<svg width="175" height="38" viewBox="0 0 175 38" fill="none"><defs>
<clipPath id="clip0">
<rect fill="white" height="35" width="150"></rect></clipPath></defs><g clip-path="url(#clip0)" transform="matrix(1, 0, 0, 1, 1.548247, 2.655452)"><path fill="#DD7B57" d="M8.99741 29.9344C4.03583 29.9344 0 25.9503 0 21.0551V8.31836L4.00625 12.2696V21.0551C4.00625 23.7716 6.24604 25.9808 8.99741 25.9808H17.9159L21.9222 29.9344H8.99741Z"></path><path fill="#DD7B57" d="M14.3115 10.9639H9.76538V22.4854H14.3115V10.9639Z"></path><path fill="#DD7B57" d="M21.7337 7.79199H17.1875V22.1516H21.7337V7.79199Z"></path><path fill="#0098BB" d="M58.4714 25.9371H43.1392C40.7182 25.9371 38.7496 23.9943 38.7496 21.6051V0.0146484H34.699V21.6051C34.699 26.1974 38.4858 29.9345 43.1392 29.9345H60.8443C59.5451 29.0197 58.6477 27.5855 58.4714 25.9371Z"></path><path fill="#0098BB" d="M8.74597 0.00976562H22.5607L22.7 0.0146316C27.5445 0.108302 31.5002 4.0887 31.5002 8.88902V21.0553C31.5002 23.318 30.6534 25.4335 29.1026 27.0794L31.5002 29.4175V35L22.3154 26.0247L25.1432 23.2085L26.2527 24.2972C27.0477 23.4031 27.494 22.2499 27.494 21.0553V8.88902C27.494 6.17257 25.2554 3.9634 22.5028 3.9634H8.99744C7.83871 3.9634 6.70957 4.36606 5.8171 5.09718C5.2402 5.56918 4.76931 6.17743 4.45621 6.85868L3.9656 7.92312L0.925781 4.922L1.24998 4.38188C1.73196 3.57655 2.33845 2.85395 3.05094 2.23353C4.41676 1.04379 6.12897 0.288345 7.925 0.0730238"></path><path fill="#0098BB" d="M65.4744 17.7025C65.7025 17.4775 65.9675 17.368 66.2818 17.368H85.465C86.8863 17.368 88.1177 16.8632 89.1261 15.8681C90.1344 14.873 90.6472 13.6577 90.6472 12.255V5.15189C90.6472 3.72493 90.1356 2.49626 89.1261 1.49995C88.1165 0.504849 86.885 0 85.465 0H66.2818C64.8334 0 63.5946 0.504849 62.5985 1.50238C61.6038 2.49626 61.1008 3.72493 61.1008 5.15189V6.63602H65.1354V5.15189C65.1354 4.84046 65.2464 4.58013 65.4744 4.35508C65.7025 4.13003 65.9675 4.02054 66.2818 4.02054H85.465C85.7805 4.02054 86.0443 4.13003 86.2724 4.35508C86.5004 4.58135 86.6114 4.84168 86.6114 5.15311V12.255C86.6114 12.5665 86.5004 12.8268 86.2724 13.0519C86.0443 13.2769 85.7805 13.3864 85.4637 13.3864H66.2818C64.8359 13.3864 63.597 13.8839 62.601 14.8669C61.605 15.8486 61.1008 17.0712 61.1008 18.4994V24.8605C61.1008 27.6584 63.4072 29.9333 66.2411 29.9333H90.6472L86.2946 25.9517H66.2818C65.9663 25.9517 65.7025 25.8422 65.4732 25.6171C65.2451 25.3933 65.1342 25.1329 65.1342 24.8203V18.4994C65.1354 18.1879 65.2451 17.9276 65.4744 17.7025Z"></path></g><line stroke-width="0.5" stroke="#D5D5D5" y2="32.656" x2="104.799" y1="2.656" x1="104.799"></line><path d="M 177.363 65.594 L 177.363 57.244 L 178.423 57.244 L 178.423 65.594 L 177.363 65.594 ZM 187.962 61.414 C 187.962 62.367 187.782 63.191 187.422 63.884 C 187.062 64.577 186.542 65.081 185.862 65.394 L 187.082 67.634 L 185.992 67.634 L 184.922 65.674 C 184.642 65.714 184.378 65.734 184.132 65.734 C 183.325 65.734 182.635 65.554 182.062 65.194 C 181.488 64.834 181.052 64.331 180.752 63.684 C 180.452 63.037 180.302 62.281 180.302 61.414 C 180.302 60.554 180.452 59.801 180.752 59.154 C 181.052 58.501 181.488 57.994 182.062 57.634 C 182.635 57.274 183.325 57.094 184.132 57.094 C 184.938 57.094 185.628 57.274 186.202 57.634 C 186.775 57.994 187.212 58.501 187.512 59.154 C 187.812 59.801 187.962 60.554 187.962 61.414 Z M 181.442 61.414 C 181.442 62.447 181.665 63.267 182.112 63.874 C 182.565 64.474 183.238 64.774 184.132 64.774 C 185.025 64.774 185.698 64.474 186.152 63.874 C 186.598 63.267 186.822 62.447 186.822 61.414 C 186.822 60.387 186.598 59.571 186.152 58.964 C 185.698 58.357 185.025 58.054 184.132 58.054 C 183.238 58.054 182.565 58.357 182.112 58.964 C 181.665 59.571 181.442 60.387 181.442 61.414 Z" transform="matrix(1.2885229587554932, 0, 0, 1.1470589637756348, -114.65743255615234, -57.610328674316406)" style="fill: rgb(196, 196, 196); white-space: pre;"></path><path d="M 182.293 69.244 L 183.353 69.244 L 183.353 77.594 L 182.293 77.594 L 182.293 73.734 L 177.813 73.734 L 177.813 77.594 L 176.753 77.594 L 176.753 69.244 L 177.813 69.244 L 177.813 72.744 L 182.293 72.744 L 182.293 69.244 ZM 190.69 77.594 L 189.64 77.594 L 189.47 76.714 C 189.103 77.061 188.75 77.317 188.41 77.484 C 188.07 77.651 187.67 77.734 187.21 77.734 C 186.643 77.734 186.203 77.547 185.89 77.174 C 185.57 76.801 185.41 76.301 185.41 75.674 L 185.41 71.334 L 186.47 71.334 L 186.47 75.534 C 186.47 75.914 186.557 76.217 186.73 76.444 C 186.91 76.677 187.163 76.794 187.49 76.794 C 187.863 76.794 188.193 76.724 188.48 76.584 C 188.767 76.451 189.063 76.247 189.37 75.974 L 189.37 71.334 L 190.43 71.334 L 190.43 76.204 L 190.69 77.594 ZM 195.297 71.184 C 195.844 71.184 196.307 71.327 196.687 71.614 C 197.074 71.907 197.364 72.301 197.557 72.794 C 197.757 73.287 197.857 73.847 197.857 74.474 C 197.857 75.101 197.744 75.657 197.517 76.144 C 197.284 76.637 196.954 77.024 196.527 77.304 C 196.101 77.584 195.594 77.724 195.007 77.724 C 194.714 77.724 194.441 77.694 194.187 77.634 C 193.927 77.567 193.654 77.474 193.367 77.354 L 193.367 77.594 L 192.307 77.594 L 192.307 68.544 L 193.367 68.544 L 193.367 72.004 C 193.887 71.457 194.531 71.184 195.297 71.184 Z M 194.907 76.794 C 195.481 76.794 195.924 76.577 196.237 76.144 C 196.557 75.711 196.717 75.154 196.717 74.474 C 196.717 73.794 196.594 73.237 196.347 72.804 C 196.107 72.371 195.727 72.154 195.207 72.154 C 194.834 72.154 194.504 72.231 194.217 72.384 C 193.924 72.537 193.641 72.761 193.367 73.054 L 193.367 76.554 C 193.887 76.714 194.401 76.794 194.907 76.794 Z" transform="matrix(1.2885229587554932, 0, 0, 1.1470589637756348, -114.65743255615234, -57.610328674316406)" style="fill: rgb(196, 196, 196); white-space: pre;"></path></svg>