<svg width="18" height="15" viewBox="0 0 18 15" fill="none" xmlns="http://www.w3.org/2000/svg">
<path d="M0.947368 0.5H17.0526C17.3597 0.5 17.5 0.709468 17.5 0.833333V5.83333C17.5 5.9572 17.3597 6.16667 17.0526 6.16667H0.947368C0.640277 6.16667 0.5 5.9572 0.5 5.83333V0.833333C0.5 0.709469 0.640277 0.5 0.947368 0.5ZM0.947368 8.83333H17.0526C17.3597 8.83333 17.5 9.0428 17.5 9.16667V14.1667C17.5 14.2905 17.3597 14.5 17.0526 14.5H0.947368C0.640278 14.5 0.5 14.2905 0.5 14.1667V9.16667C0.5 9.0428 0.640277 8.83333 0.947368 8.83333Z" stroke="currentColor"/>
</svg>
