<svg width="18" height="18" viewBox="0 0 18 18" fill="none" xmlns="http://www.w3.org/2000/svg">
<path d="M17.5 0.947368L17.5 17.0526C17.5 17.2724 17.2997 17.5 17 17.5L11 17.5C10.7003 17.5 10.5 17.2724 10.5 17.0526L10.5 0.947368C10.5 0.727586 10.7003 0.5 11 0.5L17 0.5C17.2997 0.5 17.5 0.727586 17.5 0.947368ZM7.5 0.947368L7.5 17.0526C7.5 17.2724 7.29967 17.5 7 17.5L0.999999 17.5C0.700326 17.5 0.499999 17.2724 0.499999 17.0526L0.5 0.947368C0.5 0.727586 0.700327 0.499999 1 0.499999L7 0.5C7.29967 0.5 7.5 0.727586 7.5 0.947368Z" stroke="currentColor"/>
</svg>
